<?xml version="1.0" standalone="no"?>
<!DOCTYPE svg PUBLIC "-//W3C//DTD SVG 20010904//EN"
 "http://www.w3.org/TR/2001/REC-SVG-20010904/DTD/svg10.dtd">
<svg version="1.0" xmlns="http://www.w3.org/2000/svg"
 width="1024.000000pt" height="1024.000000pt" viewBox="0 0 1024.000000 1024.000000"
 preserveAspectRatio="xMidYMid meet">
<metadata>
Created by potrace 1.14, written by Peter Selinger 2001-2017
</metadata>
<g transform="translate(0.000000,1024.000000) scale(0.100000,-0.100000)"
fill="#000000" stroke="none">
<path d="M0 5120 l0 -5120 5120 0 5120 0 0 5120 0 5120 -5120 0 -5120 0 0
-5120z m8862 3969 c279 -95 466 -298 540 -584 10 -40 13 -592 13 -2850 l0
-2800 -23 -79 c-81 -280 -297 -490 -572 -556 -84 -20 -105 -20 -2893 -20
l-2808 0 -1197 -640 -1197 -640 -8 958 c-13 1702 -18 6510 -7 6584 49 321 318
594 638 648 26 4 1710 7 3742 6 l3695 -1 77 -26z"/>
<path d="M1367 8795 c-170 -47 -308 -188 -346 -355 -7 -30 -11 -939 -11 -2780
0 -2426 2 -2742 15 -2795 43 -165 167 -291 335 -339 51 -15 390 -16 3720 -14
l3665 3 57 23 c126 51 225 153 280 290 l23 57 3 2740 c1 1802 -1 2758 -8 2795
-24 132 -121 266 -238 328 -126 67 197 62 -3812 61 -2980 -1 -3644 -3 -3683
-14z m4423 -921 c121 -31 270 -113 338 -186 l22 -24 -96 -115 c-53 -63 -97
-115 -99 -117 -1 -1 -23 15 -49 37 -92 75 -189 110 -306 111 -235 1 -410 -148
-476 -405 -25 -97 -25 -311 0 -420 49 -215 175 -350 363 -390 125 -27 255 -14
332 31 l31 18 0 173 0 173 -160 0 -160 0 0 150 0 150 325 0 325 0 0 -408 0
-407 -55 -43 c-135 -105 -296 -160 -495 -169 -219 -9 -381 33 -544 141 -238
159 -360 426 -359 786 2 501 260 841 701 925 95 18 271 13 362 -11z m-1410
-909 l0 -905 -182 2 -183 3 -3 890 c-1 490 0 896 3 903 3 9 50 12 185 12 l180
0 0 -905z m2467 -1906 c35 -6 63 -12 63 -14 0 -1 -11 -33 -25 -69 -14 -37 -25
-69 -25 -71 0 -3 45 -5 100 -5 l100 0 0 -125 c0 -69 4 -125 9 -125 31 0 157
218 196 338 10 29 21 54 24 57 4 2 37 -5 74 -16 l66 -21 -20 -51 c-22 -57
-101 -205 -132 -250 -10 -16 -17 -30 -14 -33 2 -3 33 -1 68 3 l63 8 37 65 c21
36 40 70 42 75 4 9 97 -34 121 -56 15 -14 -144 -254 -250 -379 -24 -28 -44
-54 -44 -56 0 -8 125 -4 138 4 10 7 9 18 -3 57 -8 27 -13 51 -11 53 2 2 27 9
56 17 49 13 51 13 60 -8 14 -33 70 -238 70 -257 0 -11 -18 -21 -59 -32 l-59
-15 -7 33 c-5 29 -10 34 -34 34 -34 0 -227 -27 -284 -39 -23 -6 -42 -9 -43 -8
-1 1 -9 25 -17 52 -8 28 -18 58 -22 68 -5 11 -2 17 7 17 29 0 220 221 205 237
-7 6 -128 -15 -164 -28 -20 -7 -24 -2 -45 59 l-23 67 -3 -212 -2 -213 -240 0
-240 0 0 340 0 340 69 0 c78 0 73 -5 91 98 15 81 10 78 107 61z m-3947 -169
l0 -170 90 0 90 0 0 -80 0 -80 -90 0 -90 0 0 -151 c0 -139 1 -150 18 -145 93
28 163 43 167 37 2 -5 8 -40 11 -80 5 -56 4 -72 -7 -75 -8 -3 -53 -16 -101
-31 l-87 -25 -3 -285 -3 -284 -28 -29 c-34 -35 -79 -48 -197 -57 l-85 -7 -19
63 c-10 35 -21 72 -23 82 -5 15 4 17 90 17 77 0 96 3 101 16 3 9 6 110 6 226
0 164 -3 209 -12 206 -40 -15 -198 -52 -202 -48 -7 7 -45 154 -42 158 2 2 56
16 119 32 64 15 121 31 126 35 7 4 11 68 11 176 l0 169 -115 0 -115 0 0 80 0
80 115 0 115 0 0 170 0 170 80 0 80 0 0 -170z m790 -25 l0 -195 205 0 205 0 0
-610 0 -610 -85 0 -85 0 0 55 0 55 -315 0 -315 0 0 -60 0 -60 -85 0 -85 0 0
615 0 615 195 0 195 0 0 195 0 195 85 0 85 0 0 -195z m960 25 l0 -170 90 0 90
0 0 -80 0 -80 -90 0 -90 0 0 -151 c0 -139 1 -150 18 -145 93 28 163 43 167 37
2 -5 8 -40 11 -80 5 -56 4 -72 -7 -75 -8 -3 -53 -16 -101 -31 l-88 -26 0 -265
c0 -277 -4 -309 -46 -346 -26 -22 -83 -36 -184 -44 l-85 -6 -19 63 c-10 35
-21 72 -23 82 -5 15 4 17 90 17 l96 0 3 225 c2 124 3 225 3 225 0 -2 -191 -50
-200 -50 -11 0 -60 148 -51 157 3 3 125 35 218 57 l27 6 3 175 3 175 -112 0
-113 0 0 80 0 80 110 0 110 0 0 163 c0 90 3 167 7 170 3 4 42 7 85 7 l78 0 0
-170z m790 -25 l0 -195 205 0 205 0 0 -610 0 -610 -85 0 -85 0 0 55 0 55 -315
0 -315 0 0 -60 0 -60 -85 0 -85 0 0 615 0 615 195 0 195 0 0 195 0 195 85 0
85 0 0 -195z m913 154 c20 -7 37 -18 37 -24 0 -18 -85 -188 -125 -250 -19 -30
-35 -58 -35 -60 0 -9 68 -5 94 5 17 6 36 30 57 72 47 93 42 91 110 55 32 -18
59 -35 59 -38 0 -14 -182 -281 -243 -357 l-67 -82 38 5 c20 2 58 7 85 10 26 4
47 7 47 8 0 1 -7 27 -15 57 -8 30 -15 56 -15 56 0 3 90 24 104 24 14 0 54
-144 72 -257 7 -47 1 -53 -78 -67 -36 -7 -37 -6 -44 29 -8 43 -15 44 -193 13
-176 -29 -161 -32 -184 35 l-19 59 21 14 c50 35 200 219 188 230 -6 6 -123
-11 -150 -22 -8 -3 -20 16 -34 55 l-22 60 33 35 c45 47 132 216 179 348 6 18
5 18 100 -13z m547 -884 l0 -45 353 -2 352 -3 0 -70 0 -70 -352 -3 -353 -2 0
-250 0 -250 -85 0 -85 0 0 250 0 250 -352 2 -353 3 0 70 0 70 353 3 352 2 0
45 0 45 85 0 85 0 0 -45z m297 -275 c181 -97 403 -240 403 -260 0 -9 -88 -113
-100 -118 -4 -1 -24 12 -46 29 -77 62 -250 174 -407 263 l-48 27 48 54 c26 30
50 54 52 54 2 1 47 -22 98 -49z m-631 16 c22 -8 52 -19 68 -25 l29 -12 -44
-46 c-100 -104 -297 -226 -458 -284 l-64 -23 -21 30 c-11 16 -38 48 -59 70
l-37 42 87 27 c168 52 349 143 410 207 31 32 36 33 89 14z"/>
<path d="M6730 4700 l0 -70 85 0 85 0 0 70 0 70 -85 0 -85 0 0 -70z"/>
<path d="M6730 4425 l0 -75 85 0 85 0 0 75 0 75 -85 0 -85 0 0 -75z"/>
<path d="M3300 4350 l0 -150 110 0 110 0 0 150 0 150 -110 0 -110 0 0 -150z"/>
<path d="M3690 4350 l0 -151 118 3 117 3 3 148 3 147 -121 0 -120 0 0 -150z"/>
<path d="M3300 3885 l0 -155 110 0 110 0 0 155 0 155 -110 0 -110 0 0 -155z"/>
<path d="M3690 3885 l0 -155 120 0 120 0 0 155 0 155 -120 0 -120 0 0 -155z"/>
<path d="M5050 4350 l0 -150 110 0 110 0 0 150 0 150 -110 0 -110 0 0 -150z"/>
<path d="M5440 4350 l0 -151 118 3 117 3 3 148 3 147 -121 0 -120 0 0 -150z"/>
<path d="M5048 3885 l3 -155 109 0 110 0 0 155 0 155 -112 0 -113 0 3 -155z"/>
<path d="M5440 3885 l0 -155 120 0 120 0 0 155 0 155 -120 0 -120 0 0 -155z"/>
</g>
</svg>
